<?xml version="1.0" standalone="no"?>
<!DOCTYPE svg PUBLIC "-//W3C//DTD SVG 1.1//EN" "http://www.w3.org/Graphics/SVG/1.1/DTD/svg11.dtd">
<svg xmlns="http://www.w3.org/2000/svg" width="174" height="173" viewBox="0 0 174 173" fill="none">
<path d="M173.064 0.00012207C173.27 0.0776798 173.265 0.155237 173.041 0.360522C154.139 0.48825 135.455 0.48825 116.371 0.48825C117.007 1.21414 117.355 1.66421 117.755 2.06236C135.762 19.9617 153.771 37.8579 171.791 55.7439C172.256 56.2055 172.84 56.5489 173.368 56.9474C173.428 57.1411 173.488 57.3347 173.326 57.6763C170.553 57.8418 168 57.8715 165.448 57.8752C148.929 57.899 132.409 57.9171 115.889 57.9372C115.889 57.9372 115.876 57.9162 115.897 57.6916C115.917 38.3115 115.917 19.1558 115.916 0.00012207C134.895 0.00012207 153.874 0.00012207 173.064 0.00012207Z" fill="#835EA4"/>
<path d="M115.705 0.00012207C115.916 19.1558 115.916 38.3115 115.901 57.6803C97.0387 57.8787 78.1914 57.8639 59.1577 57.6295C59.3529 56.9542 59.7021 56.4667 60.1205 56.0473C73.8858 42.2458 87.6543 28.4475 101.431 14.657C105.618 10.4657 109.832 6.3017 114.024 2.11561C114.458 1.68297 114.824 1.18467 115.422 0.481538C105.838 0.481538 96.6596 0.470271 87.4813 0.484609C77.6997 0.499889 67.9181 0.539385 58.039 0.551449C57.9416 0.534588 57.7474 0.496618 57.7474 0.496618C57.7461 0.411185 57.7448 0.325753 57.6985 0.120221C76.9333 0.00012207 96.2131 0.00012207 115.705 0.00012207Z" fill="#F1907C"/>
<path d="M115.894 58.1403C132.411 57.9172 148.931 57.8991 165.45 57.8752C168.002 57.8716 170.555 57.8419 173.292 57.7793C173.5 58.0015 173.523 58.2688 173.304 58.6918C166.134 65.6981 159.203 72.5457 152.278 79.3999C140.185 91.3692 128.097 103.343 116.007 115.314C115.977 106.006 115.939 96.6978 115.921 87.3896C115.902 77.7076 115.904 68.0255 115.894 58.1403Z" fill="#BEA9CF"/>
<path d="M57.6386 0.605567C57.7436 0.496631 57.9378 0.534601 58.0241 0.751194C58.1095 19.9134 58.1085 38.8589 58.1076 57.8045C55.4812 57.8419 52.8548 57.9102 50.2284 57.9118C33.6968 57.9217 17.1652 57.9168 0 57.9168C19.4172 38.6114 38.4754 19.6629 57.6386 0.605567Z" fill="#ED6B50"/>
<path d="M173.268 115.704C172.821 116.363 172.468 117.114 171.913 117.665C156.173 133.317 140.423 148.96 124.645 164.575C121.937 167.255 119.096 169.802 115.944 172.761C115.944 153.611 115.944 134.845 116.18 115.88C135.367 115.689 154.318 115.697 173.268 115.704Z" fill="#A6DAD8"/>
<path d="M58.2504 57.8218C58.1123 38.8589 58.1133 19.9133 58.1254 0.768007C67.9181 0.539351 77.6997 0.499855 87.4813 0.484574C96.6596 0.470236 105.838 0.481503 115.422 0.481503C114.824 1.18463 114.458 1.68293 114.024 2.11558C109.832 6.30167 105.618 10.4657 101.431 14.6569C87.6543 28.4475 73.8858 42.2458 60.1206 56.0473C59.7021 56.4667 59.3529 56.9542 58.9522 57.5574C58.7517 57.7496 58.5705 57.7943 58.2504 57.8218Z" fill="#E84624"/>
<path d="M173.303 115.497C154.318 115.697 135.367 115.689 116.213 115.668C116.01 115.655 115.979 115.485 115.991 115.4C128.092 103.343 140.18 91.3692 152.273 79.3999C159.198 72.5458 166.129 65.6981 173.205 58.7942C173.348 77.5902 173.343 96.4397 173.303 115.497Z" fill="#6BC2BE"/>
<path d="M173.387 56.7386C172.837 56.5487 172.253 56.2053 171.788 55.7438C153.768 37.8578 135.759 19.9615 117.753 2.0622C117.352 1.66406 117.004 1.21399 116.369 0.488098C135.452 0.488098 154.137 0.488098 173.03 0.476685C173.298 1.12705 173.409 1.7888 173.409 2.4506C173.416 20.477 173.411 38.5034 173.387 56.7386Z" fill="#66398E"/>
</svg>
